Results
version=1
nRows=9
nColumns=24
inDegrees=yes
endheader
time	pelvis_tilt	pelvis_list	pelvis_rotation	pelvis_tx	pelvis_ty	pelvis_tz	hip_flexion_r	hip_adduction_r	hip_rotation_r	knee_angle_r	ankle_angle_r	subtalar_angle_r	mtp_angle_r	hip_flexion_l	hip_adduction_l	hip_rotation_l	knee_angle_l	ankle_angle_l	subtalar_angle_l	mtp_angle_l	lumbar_extension	lumbar_bending	lumbar_rotation
      1.42483333	     -0.21666343	      8.50369665	     -5.08088774	      0.30193296	      1.00908781	      0.31304503	     19.70021057	    -10.43928670	      2.26124417	    -75.05073684	    -12.61681656	    -11.82976043	      7.19494678	      7.25791979	     13.37951232	      2.71861480	     -8.31229165	      1.42349784	    -15.70523297	     -2.97535003	    -12.27443277	     -4.56974653	     -0.87482204
      1.42900000	     -0.23345273	      8.29821676	     -4.99836263	      0.30668281	      1.00993806	      0.31264590	     20.25239489	    -10.15645013	      2.12615079	    -74.79029474	    -12.05974099	    -12.07418596	      7.01140363	      6.74428126	     13.20773099	      2.85783340	     -7.92616980	      1.50178616	    -15.59624123	     -2.97568281	    -12.29246724	     -4.26554330	     -1.10346080
      1.43316667	     -0.26314178	      8.11478325	     -4.91682972	      0.31141301	      1.01069404	      0.31224378	     20.81604208	     -9.89756252	      1.99554557	    -74.49250579	    -11.45181376	    -12.32359338	      6.91196379	      6.25705067	     13.05589329	      2.96619132	     -7.55508231	      1.56007182	    -15.47624014	     -2.97548204	    -12.30844685	     -3.98898862	     -1.24499769
      1.43733333	     -0.25885498	      7.89798335	     -4.81670717	      0.31620436	      1.01152504	      0.31183888	     21.29542678	     -9.61268396	      1.82815495	    -74.09498766	    -10.89993937	    -12.53422714	      6.70735301	      5.70942511	     12.86931073	      3.10741421	     -7.15482149	      1.67093474	    -15.32810551	     -2.97594240	    -12.32190950	     -3.66692424	     -1.58463170
      1.44150000	     -0.25915901	      7.70308557	     -4.71802146	      0.32096874	      1.01227992	      0.31143181	     21.77599082	     -9.35286332	      1.66713878	    -73.65831361	    -10.28549235	    -12.73514055	      6.48101178	      5.18040465	     12.70281809	      3.22220668	     -6.77061116	      1.75692069	    -15.17309807	     -2.97765814	    -12.34589134	     -3.37730120	     -1.83155537
      1.44566667	     -0.27636787	      7.49866470	     -4.61604964	      0.32573107	      1.01298530	      0.31103402	     22.25467307	     -9.07730375	      1.50584382	    -73.15754902	     -9.67845513	    -12.93124863	      6.29239034	      4.67500262	     12.52195310	      3.33125458	     -6.39843607	      1.84888654	    -15.00877926	     -2.97862209	    -12.36375328	     -3.07368809	     -2.02525198
      1.44983333	     -0.29543945	      7.30052489	     -4.51223329	      0.33050287	      1.01363389	      0.31063569	     22.72013336	     -8.81152272	      1.34143296	    -72.60433104	     -9.05092689	    -13.10563642	      6.12091486	      4.17396102	     12.34468646	      3.42518604	     -6.02836064	      1.94476782	    -14.83281411	     -2.97846978	    -12.36994226	     -2.78413309	     -2.22307073
      1.45400000	     -0.32291916	      7.12657179	     -4.39898621	      0.33526956	      1.01420775	      0.31025299	     23.18571563	     -8.57248894	      1.17489751	    -72.01657658	     -8.33780337	    -13.23721098	      2.49320597	      3.70370440	     12.18746077	      3.46737523	     -5.69875409	      2.09345216	    -14.55982844	     -3.03538233	    -12.36129276	     -2.53036711	     -2.44458611
      1.45816667	     -0.32265736	      6.93435035	     -4.30087893	      0.34006620	      1.01481146	      0.30987067	     23.59394512	     -8.31628485	      1.01688235	    -71.34471976	     -7.71037715	    -13.36230057	      2.48864368	      3.17613674	     12.01306638	      3.56307579	     -5.31037405	      2.15183052	    -14.41623464	     -3.03242516	    -12.38290632	     -2.24195284	     -2.61263113
